<?xml version="1.0" encoding="UTF-8" standalone="no"?><!DOCTYPE svg PUBLIC "-//W3C//DTD SVG 1.1//EN" "http://www.w3.org/Graphics/SVG/1.1/DTD/svg11.dtd"><svg width="100%" height="100%" viewBox="0 0 3417 4167" version="1.1" xmlns="http://www.w3.org/2000/svg" xmlns:xlink="http://www.w3.org/1999/xlink" xml:space="preserve" xmlns:serif="http://www.serif.com/" style="fill-rule:evenodd;clip-rule:evenodd;stroke-linejoin:round;stroke-miterlimit:2;"><path d="M2898.24,1797.26c421.849,1025.29 -633.782,1851.27 -1471.15,1423.69c50.294,-39.094 97.706,-76.332 151.432,-127.621c29.052,-27.733 99.837,-85.254 114.689,-121.307c33.633,-81.642 11.257,-152.412 -49.93,-209.818c-23.281,-21.841 -51.222,-40.122 -84.368,-42.183c-23.19,-1.443 -52.01,-4.008 -74.693,1.033c-123.511,27.447 -211.629,132.65 -304.961,209.884c-81.666,67.583 -182.847,150.29 -270.212,221.314c-115.702,94.062 -89.254,199.163 -67.256,327.072c15.3,88.963 81.572,451.61 101.833,537.84c61.932,263.585 429.065,139.117 381.763,-69.52c-23.437,-103.382 -51.216,-315.406 -51.216,-315.406c175.224,86.395 381.365,112.831 574.141,115.457c287.767,3.92 601.104,-47.423 848.127,-205.274c143.842,-91.916 271.015,-227.925 376.23,-359.883c232.845,-292.032 371.937,-648.573 338.033,-1027.58c-16.21,-181.222 -59.932,-359.953 -132.809,-526.441c-10.039,-22.935 -25.32,-43.808 -42.845,-61.686c-18.865,-19.246 -48.489,-42.759 -70.167,-58.772c-110.998,-81.984 -338.796,104.084 -266.64,289.192l0.001,0.002Z" style="fill:#5865f2;"/><path d="M2602.96,1523.08c421.848,1025.3 -633.782,1851.27 -1471.15,1423.7c50.295,-39.093 97.706,-76.332 151.433,-127.622c29.052,-27.733 99.837,-85.253 114.689,-121.305c33.634,-81.644 11.257,-152.413 -49.93,-209.82c-23.28,-21.841 -51.222,-40.12 -84.368,-42.183c-23.19,-1.443 -52.011,-4.007 -74.693,1.034c-123.512,27.446 -211.63,132.65 -304.96,209.884c-81.668,67.582 -182.847,150.29 -270.213,221.315c-115.701,94.06 -89.255,199.161 -67.257,327.072c15.302,88.962 81.574,451.61 101.835,537.839c61.931,263.585 429.064,139.119 381.763,-69.519c-23.439,-103.382 -51.217,-315.406 -51.217,-315.406c175.224,86.395 381.366,112.831 574.141,115.457c287.767,3.919 601.102,-47.423 848.128,-205.274c143.841,-91.916 271.016,-227.925 376.229,-359.883c232.847,-292.031 371.938,-648.573 338.036,-1027.58c-16.211,-181.223 -59.932,-359.952 -132.81,-526.441c-10.038,-22.933 -25.319,-43.807 -42.843,-61.685c-18.867,-19.246 -48.49,-42.76 -70.168,-58.771c-110.999,-81.986 -338.795,104.083 -266.641,289.19l-0.002,0.001Z" style="fill:#57f287;"/><path d="M2734.78,1649.63c421.849,1025.3 -633.782,1851.27 -1471.15,1423.69c50.295,-39.093 97.706,-76.331 151.432,-127.621c29.052,-27.734 99.837,-85.254 114.689,-121.305c33.634,-81.644 11.258,-152.413 -49.93,-209.82c-23.279,-21.842 -51.222,-40.121 -84.367,-42.183c-23.19,-1.443 -52.011,-4.007 -74.692,1.034c-123.513,27.446 -211.631,132.65 -304.961,209.884c-81.667,67.582 -182.848,150.289 -270.214,221.314c-115.7,94.061 -89.254,199.162 -67.255,327.072c15.3,88.963 81.573,451.61 101.834,537.84c61.931,263.585 429.065,139.118 381.763,-69.52c-23.437,-103.381 -51.215,-315.406 -51.215,-315.406c175.223,86.395 381.365,112.832 574.14,115.458c287.766,3.919 601.102,-47.424 848.128,-205.274c143.841,-91.917 271.015,-227.926 376.229,-359.883c232.846,-292.031 371.938,-648.574 338.037,-1027.58c-16.212,-181.223 -59.934,-359.953 -132.81,-526.444c-10.04,-22.934 -25.319,-43.807 -42.844,-61.686c-18.866,-19.246 -48.49,-42.759 -70.169,-58.77c-110.997,-81.986 -338.795,104.083 -266.64,289.19l-0.003,0.004Z" style="fill:#fff;"/><path d="M517.523,2370.61c-421.849,-1025.29 633.782,-1851.27 1471.15,-1423.69c-50.294,39.094 -97.706,76.333 -151.432,127.622c-29.052,27.734 -99.837,85.252 -114.689,121.306c-33.633,81.644 -11.258,152.412 49.93,209.818c23.281,21.841 51.222,40.122 84.368,42.184c23.189,1.443 52.01,4.007 74.692,-1.033c123.512,-27.447 211.63,-132.651 304.96,-209.885c81.666,-67.582 182.847,-150.289 270.213,-221.314c115.7,-94.06 89.254,-199.162 67.255,-327.072c-15.3,-88.962 -81.573,-451.61 -101.834,-537.84c-61.93,-263.584 -429.065,-139.118 -381.763,69.52c23.437,103.382 51.216,315.406 51.216,315.406c-175.224,-86.394 -381.365,-112.831 -574.14,-115.456c-287.766,-3.919 -601.102,47.422 -848.128,205.274c-143.841,91.917 -271.014,227.926 -376.229,359.88c-232.846,292.032 -371.938,648.573 -338.033,1027.58c16.209,181.223 59.932,359.952 132.808,526.441c10.04,22.933 25.321,43.807 42.845,61.684c18.865,19.247 48.489,42.761 70.168,58.772c110.997,81.986 338.795,-104.083 266.639,-289.191l0.002,0Z" style="fill:#57f287;"/><path d="M812.81,2644.8c-421.848,-1025.3 633.782,-1851.27 1471.15,-1423.69c-50.295,39.094 -97.706,76.332 -151.433,127.621c-29.052,27.735 -99.837,85.253 -114.689,121.306c-33.633,81.643 -11.257,152.413 49.931,209.819c23.28,21.841 51.221,40.122 84.367,42.183c23.191,1.444 52.011,4.008 74.693,-1.033c123.511,-27.447 211.631,-132.65 304.961,-209.884c81.666,-67.583 182.847,-150.29 270.212,-221.314c115.702,-94.06 89.255,-199.163 67.257,-327.072c-15.301,-88.963 -81.573,-451.607 -101.834,-537.84c-61.932,-263.583 -429.065,-139.117 -381.763,69.52c23.438,103.383 51.216,315.406 51.216,315.406c-175.223,-86.394 -381.365,-112.831 -574.14,-115.457c-287.768,-3.918 -601.105,47.423 -848.128,205.274c-143.843,91.916 -271.016,227.926 -376.229,359.883c-232.847,292.032 -371.938,648.573 -338.037,1027.58c16.211,181.223 59.932,359.953 132.81,526.441c10.038,22.935 25.319,43.808 42.844,61.686c18.866,19.246 48.489,42.759 70.167,58.771c110.999,81.987 338.796,-104.083 266.641,-289.191l0.002,-0.002Z" style="fill:#5865f2;"/><path d="M680.986,2518.25c-421.849,-1025.3 633.782,-1851.27 1471.15,-1423.7c-50.295,39.094 -97.706,76.333 -151.433,127.621c-29.051,27.735 -99.836,85.254 -114.688,121.307c-33.633,81.643 -11.258,152.412 49.93,209.818c23.28,21.842 51.221,40.122 84.367,42.184c23.19,1.443 52.011,4.007 74.693,-1.033c123.512,-27.448 211.63,-132.651 304.96,-209.885c81.667,-67.583 182.847,-150.29 270.214,-221.314c115.701,-94.06 89.254,-199.163 67.256,-327.072c-15.301,-88.963 -81.574,-451.607 -101.835,-537.839c-61.931,-263.584 -429.064,-139.117 -381.763,69.519c23.439,103.383 51.217,315.406 51.217,315.406c-175.224,-86.394 -381.366,-112.831 -574.141,-115.457c-287.766,-3.918 -601.102,47.423 -848.128,205.274c-143.841,91.916 -271.014,227.926 -376.229,359.883c-232.845,292.032 -371.937,648.573 -338.036,1027.58c16.211,181.223 59.933,359.952 132.81,526.44c10.039,22.935 25.319,43.808 42.844,61.686c18.866,19.246 48.489,42.759 70.168,58.772c110.998,81.985 338.796,-104.085 266.64,-289.192l0.002,-0.001Z" style="fill:#fff;"/></svg>