<?xml version="1.0" encoding="UTF-8" standalone="no"?><!DOCTYPE svg PUBLIC "-//W3C//DTD SVG 1.1//EN" "http://www.w3.org/Graphics/SVG/1.1/DTD/svg11.dtd"><svg width="100%" height="100%" viewBox="0 0 11250 13717" version="1.1" xmlns="http://www.w3.org/2000/svg" xmlns:xlink="http://www.w3.org/1999/xlink" xml:space="preserve" xmlns:serif="http://www.serif.com/" style="fill-rule:evenodd;clip-rule:evenodd;stroke-linejoin:round;stroke-miterlimit:2;"><g id="main"><g id="left"><path d="M9542.42,5913.5c1388.93,3375.77 -2086.72,6095.29 -4843.75,4687.5c165.591,-128.717 321.695,-251.325 498.587,-420.192c95.654,-91.312 328.713,-280.696 377.613,-399.4c110.737,-268.808 37.062,-501.816 -164.396,-690.825c-76.65,-71.912 -168.646,-132.1 -277.779,-138.887c-76.354,-4.75 -171.242,-13.196 -245.925,3.4c-406.659,90.371 -696.788,436.75 -1004.08,691.041c-268.884,222.517 -602.021,494.83 -889.671,728.675c-380.946,309.696 -293.867,655.742 -221.438,1076.88c50.375,292.908 268.575,1486.92 335.284,1770.83c203.908,867.85 1412.69,458.042 1256.95,-228.892c-77.167,-340.383 -168.629,-1038.47 -168.629,-1038.47c576.921,284.454 1255.64,371.495 1890.35,380.141c947.471,12.904 1979.13,-156.141 2792.45,-675.862c473.595,-302.634 892.312,-750.442 1238.73,-1184.91c766.641,-961.512 1224.6,-2135.42 1112.97,-3383.29c-53.37,-596.671 -197.325,-1185.14 -437.27,-1733.3c-33.055,-75.513 -83.367,-144.238 -141.067,-203.1c-62.113,-63.367 -159.65,-140.784 -231.025,-193.504c-365.458,-269.934 -1115.48,342.695 -877.908,952.158Z" style="fill:#5865f2;"/><path d="M8570.21,5010.75c1388.93,3375.78 -2086.72,6095.29 -4843.75,4687.5c165.596,-128.712 321.696,-251.321 498.592,-420.192c95.654,-91.312 328.713,-280.696 377.612,-399.396c110.738,-268.812 37.063,-501.816 -164.395,-690.829c-76.65,-71.912 -168.646,-132.096 -277.779,-138.887c-76.355,-4.75 -171.246,-13.192 -245.925,3.404c-406.663,90.367 -696.792,436.75 -1004.08,691.042c-268.888,222.512 -602.021,494.825 -889.671,728.675c-380.946,309.691 -293.871,655.737 -221.442,1076.88c50.379,292.908 268.579,1486.92 335.288,1770.83c203.908,867.85 1412.69,458.046 1256.95,-228.892c-77.171,-340.383 -168.629,-1038.47 -168.629,-1038.47c576.92,284.454 1255.64,371.495 1890.35,380.141c947.47,12.904 1979.12,-156.141 2792.45,-675.862c473.596,-302.634 892.317,-750.442 1238.73,-1184.91c766.646,-961.508 1224.6,-2135.42 1112.98,-3383.29c-53.375,-596.675 -197.325,-1185.14 -437.275,-1733.3c-33.05,-75.509 -83.362,-144.234 -141.062,-203.1c-62.117,-63.367 -159.65,-140.784 -231.025,-193.5c-365.463,-269.938 -1115.48,342.691 -877.913,952.154Z" style="fill:#57f287;"/><path d="M9004.21,5427.42c1388.93,3375.78 -2086.72,6095.29 -4843.75,4687.5c165.596,-128.713 321.696,-251.321 498.588,-420.192c95.654,-91.313 328.712,-280.696 377.612,-399.396c110.738,-268.812 37.067,-501.817 -164.395,-690.829c-76.646,-71.913 -168.646,-132.096 -277.775,-138.888c-76.355,-4.75 -171.246,-13.191 -245.925,3.405c-406.663,90.366 -696.792,436.75 -1004.08,691.041c-268.888,222.513 -602.025,494.825 -889.675,728.675c-380.942,309.692 -293.867,655.738 -221.438,1076.88c50.375,292.909 268.579,1486.92 335.288,1770.83c203.908,867.85 1412.69,458.046 1256.95,-228.892c-77.167,-340.383 -168.625,-1038.47 -168.625,-1038.47c576.92,284.454 1255.64,371.496 1890.35,380.142c947.466,12.904 1979.12,-156.142 2792.45,-675.863c473.596,-302.633 892.313,-750.441 1238.73,-1184.91c766.642,-961.508 1224.6,-2135.42 1112.98,-3383.29c-53.375,-596.675 -197.329,-1185.14 -437.275,-1733.31c-33.054,-75.508 -83.362,-144.233 -141.062,-203.1c-62.117,-63.366 -159.654,-140.783 -231.029,-193.5c-365.459,-269.937 -1115.48,342.692 -877.909,952.155Z" style="fill:#fff;"/></g><g id="right"><path d="M1703.93,7801.25c-1388.93,-3375.77 2086.72,-6095.29 4843.75,-4687.5c-165.591,128.717 -321.695,251.325 -498.587,420.196c-95.654,91.312 -328.713,280.691 -377.613,399.396c-110.737,268.812 -37.066,501.816 164.396,690.825c76.65,71.912 168.646,132.1 277.779,138.891c76.35,4.75 171.242,13.192 245.921,-3.404c406.663,-90.366 696.792,-436.75 1004.08,-691.041c268.884,-222.513 602.021,-494.825 889.671,-728.675c380.942,-309.692 293.867,-655.738 221.438,-1076.88c-50.375,-292.908 -268.579,-1486.92 -335.288,-1770.83c-203.904,-867.85 -1412.69,-458.046 -1256.95,228.892c77.167,340.383 168.629,1038.47 168.629,1038.47c-576.925,-284.45 -1255.64,-371.495 -1890.35,-380.137c-947.466,-12.904 -1979.12,156.137 -2792.45,675.862c-473.595,302.634 -892.312,750.442 -1238.73,1184.9c-766.641,961.512 -1224.6,2135.42 -1112.97,3383.29c53.37,596.675 197.325,1185.14 437.27,1733.3c33.055,75.509 83.367,144.234 141.067,203.096c62.113,63.371 159.65,140.788 231.025,193.504c365.458,269.938 1115.48,-342.691 877.908,-952.158Z" style="fill:#57f287;"/><path d="M2676.16,8704c-1388.93,-3375.77 2086.72,-6095.29 4843.75,-4687.5c-165.595,128.717 -321.695,251.325 -498.591,420.192c-95.654,91.316 -328.713,280.696 -377.613,399.4c-110.737,268.808 -37.062,501.816 164.396,690.825c76.65,71.912 168.646,132.1 277.779,138.887c76.354,4.754 171.246,13.196 245.925,-3.4c406.659,-90.371 696.792,-436.75 1004.08,-691.041c268.884,-222.517 602.021,-494.83 889.671,-728.675c380.946,-309.692 293.871,-655.742 221.442,-1076.88c-50.379,-292.908 -268.579,-1486.91 -335.288,-1770.83c-203.908,-867.846 -1412.69,-458.042 -1256.95,228.892c77.171,340.387 168.629,1038.47 168.629,1038.47c-576.921,-284.45 -1255.64,-371.495 -1890.35,-380.141c-947.471,-12.9 -1979.13,156.141 -2792.45,675.862c-473.6,302.634 -892.316,750.446 -1238.73,1184.91c-766.645,961.512 -1224.6,2135.42 -1112.98,3383.29c53.375,596.675 197.325,1185.14 437.275,1733.3c33.05,75.513 83.363,144.238 141.063,203.1c62.117,63.367 159.65,140.784 231.025,193.504c365.462,269.938 1115.48,-342.695 877.912,-952.158Z" style="fill:#5865f2;"/><path d="M2242.13,8287.33c-1388.93,-3375.77 2086.72,-6095.29 4843.75,-4687.5c-165.596,128.717 -321.696,251.325 -498.592,420.192c-95.65,91.317 -328.708,280.696 -377.608,399.4c-110.737,268.808 -37.066,501.817 164.396,690.825c76.646,71.913 168.642,132.1 277.775,138.888c76.354,4.754 171.246,13.195 245.925,-3.4c406.662,-90.371 696.792,-436.75 1004.08,-691.042c268.887,-222.517 602.021,-494.829 889.675,-728.675c380.942,-309.692 293.867,-655.742 221.438,-1076.88c-50.376,-292.909 -268.58,-1486.91 -335.288,-1770.83c-203.908,-867.846 -1412.69,-458.041 -1256.95,228.892c77.171,340.387 168.629,1038.47 168.629,1038.47c-576.921,-284.45 -1255.64,-371.496 -1890.35,-380.142c-947.467,-12.9 -1979.12,156.142 -2792.45,675.863c-473.596,302.633 -892.312,750.445 -1238.73,1184.91c-766.641,961.512 -1224.6,2135.42 -1112.98,3383.29c53.375,596.675 197.329,1185.14 437.275,1733.3c33.054,75.512 83.363,144.237 141.063,203.1c62.116,63.366 159.65,140.783 231.029,193.504c365.458,269.937 1115.48,-342.696 877.908,-952.159Z" style="fill:#fff;"/></g></g></svg>